<?xml version="1.0" standalone="no"?>
<!DOCTYPE svg PUBLIC "-//W3C//DTD SVG 20010904//EN"
 "http://www.w3.org/TR/2001/REC-SVG-20010904/DTD/svg10.dtd">
<svg version="1.0" xmlns="http://www.w3.org/2000/svg"
 width="405.000000pt" height="405.000000pt" viewBox="0 0 405.000000 405.000000"
 preserveAspectRatio="xMidYMid meet">
<metadata>
Created by potrace 1.11, written by Peter Selinger 2001-2013
</metadata>
<g transform="translate(0.000000,405.000000) scale(0.100000,-0.100000)"
fill="#000000" stroke="none">
<path d="M1783 4034 c-528 -66 -1026 -344 -1341 -749 -34 -44 -66 -85 -71 -91
-20 -25 -110 -173 -139 -229 -122 -238 -185 -444 -221 -730 -9 -71 -7 -405 4
-460 3 -16 10 -59 16 -95 32 -189 88 -358 179 -545 206 -419 514 -726 935
-929 110 -54 248 -108 305 -121 8 -2 51 -13 95 -24 44 -11 112 -25 150 -31 39
-7 88 -15 111 -19 48 -9 400 -7 464 3 253 39 435 94 645 196 100 49 327 186
345 209 3 3 28 24 55 46 138 109 323 321 432 496 150 239 258 552 291 839 16
149 7 442 -19 573 -6 29 -12 63 -15 77 -24 129 -99 345 -155 449 -16 30 -29
58 -29 62 0 13 -89 157 -151 244 -281 397 -728 691 -1209 796 -52 11 -113 22
-135 25 -22 3 -51 7 -65 11 -50 12 -377 10 -477 -3z"/>
</g>
</svg>
